<svg viewBox="136.032 91.48695652173922 539.136 526.5167701863354" xmlns="http://www.w3.org/2000/svg" overflow="visible" xmlns:xlink="http://www.w3.org/1999/xlink" ><rect id="Blush Background Color" fill="#f8f8fb" x="136.032" y="91.48695652173922" width="539.136" height="526.5167701863354" rx="15"/><g id="Master/Spot Illustration/Working" stroke="none" stroke-width="1" fill="none" fill-rule="evenodd"><g id="Floor/Carpet" transform="translate(151.721600, 471.398000) scale(1 1)"><g id="Floor/Carpet/Pink" stroke="none" stroke-width="1" fill="none" fill-rule="evenodd"><g id="Simple-Carpet" transform="translate(41.000000, 32.000000)"><path d="M450.8618,46.9304 C450.8618,72.5734 350.0448,93.3614 225.6808,93.3614 C101.3178,93.3614 0.5008,72.5734 0.5008,46.9304 C0.5008,21.2864 101.3178,0.4994 225.6808,0.4994 C350.0448,0.4994 450.8618,21.2864 450.8618,46.9304" id="Carpet" fill="#cb7775"/><path d="M27.204,55.534 C27.48,55.534 27.704,55.31 27.704,55.034 C27.704,54.017 28.708,53.213 29.77,53.61 C30.001,53.694 30.257,53.604 30.38,53.392 C30.658,52.91 31.151,52.622 31.697,52.622 C32.387,52.622 32.992,53.092 33.168,53.764 C33.214,53.94 33.351,54.077 33.527,54.122 C33.701,54.168 33.889,54.113 34.014,53.982 C34.306,53.676 34.697,53.507 35.116,53.507 C35.958,53.507 36.644,54.192 36.644,55.034 C36.644,55.31 36.868,55.534 37.144,55.534 C37.42,55.534 37.644,55.31 37.644,55.034 C37.644,53.64 36.51,52.507 35.116,52.507 C34.665,52.507 34.234,52.624 33.854,52.845 C33.406,52.1 32.595,51.622 31.697,51.622 C30.936,51.622 30.217,51.974 29.741,52.561 C28.168,52.228 26.704,53.471 26.704,55.034 C26.704,55.31 26.928,55.534 27.204,55.534 M370.476,81.984 C330.035,88.998 278.613,92.861 225.681,92.861 C101.792,92.861 1,72.257 1,46.93 C1,46.654 0.777,46.43 0.5,46.43 C0.224,46.43 0,46.654 0,46.93 C0,59.596 23.565,71.429 66.353,80.252 C108.917,89.028 165.5,93.861 225.681,93.861 C278.668,93.861 330.151,89.993 370.647,82.969 C370.919,82.922 371.101,82.663 371.054,82.391 C371.007,82.118 370.748,81.928 370.476,81.984 M84.281,48.887 C84.557,48.887 84.781,48.663 84.781,48.387 C84.781,47.368 85.792,46.565 86.846,46.962 C87.074,47.049 87.334,46.957 87.457,46.745 C87.735,46.263 88.227,45.974 88.774,45.974 C89.464,45.974 90.069,46.444 90.245,47.116 C90.291,47.291 90.428,47.428 90.603,47.473 C90.78,47.517 90.965,47.465 91.09,47.335 C91.383,47.027 91.775,46.858 92.193,46.858 C93.035,46.858 93.721,47.544 93.721,48.387 C93.721,48.663 93.944,48.887 94.221,48.887 C94.497,48.887 94.721,48.663 94.721,48.387 C94.721,46.992 93.587,45.858 92.193,45.858 C91.742,45.858 91.311,45.975 90.932,46.197 C90.483,45.453 89.672,44.974 88.774,44.974 C88.013,44.974 87.294,45.326 86.819,45.914 C85.248,45.571 83.781,46.822 83.781,48.387 C83.781,48.663 84.004,48.887 84.281,48.887 M374.247,70.53 C373.797,70.53 373.366,70.647 372.986,70.869 C372.538,70.125 371.727,69.645 370.829,69.645 C370.068,69.645 369.35,69.998 368.873,70.586 C367.301,70.244 365.835,71.494 365.835,73.058 C365.835,73.335 366.059,73.558 366.335,73.558 C366.612,73.558 366.835,73.335 366.835,73.058 C366.835,72.04 367.846,71.236 368.901,71.634 C369.127,71.721 369.389,71.63 369.512,71.417 C369.79,70.933 370.282,70.645 370.829,70.645 C371.518,70.645 372.123,71.115 372.299,71.788 C372.346,71.963 372.482,72.099 372.658,72.145 C372.834,72.191 373.019,72.137 373.145,72.007 C373.438,71.699 373.829,71.53 374.247,71.53 C375.09,71.53 375.775,72.216 375.775,73.058 C375.775,73.335 375.999,73.558 376.275,73.558 C376.552,73.558 376.775,73.335 376.775,73.058 C376.775,71.664 375.641,70.53 374.247,70.53 M381.316,49.296 C380.866,49.296 380.434,49.413 380.055,49.634 C379.607,48.889 378.796,48.411 377.898,48.411 C377.137,48.411 376.418,48.763 375.942,49.35 C374.366,49.02 372.905,50.262 372.905,51.823 C372.905,52.099 373.128,52.323 373.405,52.323 C373.681,52.323 373.905,52.099 373.905,51.823 C373.905,50.806 374.908,50 375.971,50.399 C376.2,50.485 376.458,50.393 376.58,50.181 C376.859,49.699 377.351,49.411 377.898,49.411 C378.587,49.411 379.192,49.881 379.369,50.554 C379.415,50.729 379.552,50.866 379.728,50.911 C379.903,50.957 380.09,50.902 380.215,50.771 C380.507,50.465 380.898,50.296 381.316,50.296 C382.159,50.296 382.845,50.981 382.845,51.823 C382.845,52.099 383.068,52.323 383.345,52.323 C383.621,52.323 383.845,52.099 383.845,51.823 C383.845,50.43 382.71,49.296 381.316,49.296 M322.598,41.208 C322.874,41.208 323.098,40.984 323.098,40.708 C323.098,39.691 324.101,38.886 325.164,39.284 C325.394,39.368 325.651,39.277 325.774,39.066 C326.052,38.584 326.545,38.296 327.091,38.296 C327.781,38.296 328.386,38.765 328.562,39.438 C328.608,39.614 328.746,39.751 328.921,39.796 C329.096,39.842 329.283,39.787 329.408,39.656 C329.7,39.349 330.091,39.18 330.51,39.18 C331.352,39.18 332.038,39.866 332.038,40.708 C332.038,40.984 332.262,41.208 332.538,41.208 C332.814,41.208 333.038,40.984 333.038,40.708 C333.038,39.314 331.904,38.18 330.51,38.18 C330.059,38.18 329.628,38.298 329.248,38.518 C328.8,37.774 327.989,37.296 327.091,37.296 C326.33,37.296 325.611,37.648 325.135,38.235 C323.559,37.903 322.099,39.145 322.098,40.708 C322.098,40.984 322.322,41.208 322.598,41.208 M261.808,79.283 C262.084,79.283 262.308,79.059 262.308,78.783 C262.308,77.766 263.312,76.961 264.374,77.359 C264.603,77.443 264.861,77.353 264.983,77.141 C265.262,76.659 265.754,76.371 266.301,76.371 C266.99,76.371 267.595,76.841 267.772,77.513 C267.818,77.687 267.955,77.824 268.13,77.87 C268.306,77.915 268.492,77.862 268.617,77.731 C268.91,77.425 269.301,77.256 269.719,77.256 C270.562,77.256 271.247,77.941 271.247,78.783 C271.247,79.059 271.471,79.283 271.747,79.283 C272.024,79.283 272.247,79.059 272.247,78.783 C272.247,77.389 271.113,76.256 269.719,76.256 C269.268,76.256 268.837,76.373 268.458,76.594 C268.01,75.849 267.199,75.371 266.301,75.371 C265.54,75.371 264.821,75.723 264.345,76.31 C262.77,75.98 261.308,77.221 261.308,78.783 C261.308,79.059 261.531,79.283 261.808,79.283 M149.03,69.412 C148.582,68.668 147.771,68.189 146.873,68.189 C146.112,68.189 145.393,68.542 144.917,69.129 C143.341,68.798 141.88,70.039 141.88,71.601 C141.88,71.878 142.103,72.101 142.38,72.101 C142.656,72.101 142.88,71.878 142.88,71.601 C142.879,70.585 143.883,69.779 144.946,70.178 C145.176,70.262 145.433,70.171 145.556,69.96 C145.834,69.477 146.327,69.189 146.873,69.189 C147.562,69.189 148.167,69.659 148.344,70.332 C148.39,70.508 148.527,70.644 148.703,70.689 C148.878,70.735 149.065,70.68 149.19,70.55 C149.482,70.243 149.873,70.074 150.291,70.074 C151.134,70.074 151.82,70.76 151.82,71.601 C151.82,71.878 152.043,72.101 152.32,72.101 C152.596,72.101 152.82,71.878 152.82,71.601 C152.82,70.208 151.685,69.074 150.291,69.074 C149.841,69.074 149.41,69.191 149.03,69.412 M130.1,5.378 C130.116,5.378 130.132,5.377 130.149,5.376 C160.142,2.471 192.284,1 225.681,1 C225.957,1 226.181,0.776 226.181,0.5 C226.181,0.223 225.957,-1.13686838e-13 225.681,-1.13686838e-13 C192.252,-1.13686838e-13 160.078,1.473 130.052,4.38 C129.777,4.407 129.576,4.651 129.603,4.926 C129.628,5.184 129.846,5.378 130.1,5.378 M239.764,16.89 C240.04,16.89 240.264,16.667 240.264,16.39 C240.264,15.374 241.268,14.569 242.331,14.967 C242.561,15.051 242.818,14.961 242.94,14.749 C243.218,14.266 243.711,13.978 244.257,13.978 C244.947,13.978 245.552,14.448 245.728,15.12 C245.774,15.295 245.911,15.431 246.087,15.477 C246.262,15.521 246.448,15.469 246.574,15.339 C246.866,15.032 247.258,14.863 247.676,14.863 C248.518,14.863 249.204,15.549 249.204,16.39 C249.204,16.667 249.428,16.89 249.704,16.89 C249.98,16.89 250.204,16.667 250.204,16.39 C250.204,14.997 249.07,13.863 247.676,13.863 C247.225,13.863 246.794,13.98 246.415,14.201 C245.967,13.457 245.156,12.978 244.257,12.978 C243.496,12.978 242.777,13.331 242.301,13.918 C240.73,13.587 239.264,14.828 239.264,16.39 C239.264,16.667 239.488,16.89 239.764,16.89" id="Fill-15" fill="#0a0c0e"/></g></g></g><g id="Working Stuff" transform="translate(180.822000, 90.172000) scale(1 1)"><g id="Working Stuff/Windows" stroke="none" stroke-width="1" fill="none" fill-rule="evenodd"><g id="Working-Windows" transform="translate(8.000000, 24.000000)"><polygon id="Fill-1" fill="#d4ebf3" points="59 59 210 59 210 1 59 1"/><path d="M210.224867,0.823099559 C210.47268,0.823099559 210.673803,1.02440352 210.673803,1.27243877 L210.673803,59.0296018 C210.673803,59.277637 210.47268,59.478941 210.224867,59.478941 L59.2377562,59.478941 C58.9899434,59.478941 58.78882,59.277637 58.78882,59.0296018 C58.78882,58.7815665 58.9899434,58.5802626 59.2377562,58.5802626 L209.775931,58.5802626 L209.775931,1.27243877 C209.775931,1.02440352 209.977054,0.823099559 210.224867,0.823099559 Z M120.630945,9.72639648 C120.878757,9.72639648 121.079881,9.92680176 121.079881,10.1757357 L121.079881,51.1410925 C121.079881,51.3891278 120.878757,51.5904317 120.630945,51.5904317 L69.0005915,51.5904317 C68.7518809,51.5904317 68.5516553,51.3891278 68.5516553,51.1410925 L68.5516553,10.1757357 C68.5516553,9.92680176 68.7518809,9.72639648 69.0005915,9.72639648 L120.630945,9.72639648 Z M120.182009,10.6250749 L69.4495277,10.6250749 L69.4495277,50.6917533 L120.182009,50.6917533 L120.182009,10.6250749 Z" id="Combined-Shape" fill="#0a0c0e"/><polygon id="Fill-8" fill="#d4ebf3" points="0.44893617 156.955084 156.641911 156.955084 156.641911 53.6007753 0.44893617 53.6007753"/><polygon id="Fill-9" fill="#d4ebf3" points="108.915506 204 206.536677 204 206.536677 117.437498 108.915506 117.437498"/><path d="M206.536677,169.115101 L206.536677,204 L108.915506,204 L108.915506,169.115101 L206.536677,169.115101 Z M156.641911,44.4818855 L156.641911,53.6007753 L0.44893617,53.6007753 L0.44893617,44.4818855 L156.641911,44.4818855 Z" id="Interface-color" fill="#85a5ee"/><path d="M186.362383,180.824881 C186.610196,180.824881 186.811319,181.025286 186.811319,181.27422 L186.811319,194.012088 C186.811319,194.260123 186.610196,194.461427 186.362383,194.461427 L129.090698,194.461427 C128.842885,194.461427 128.641762,194.260123 128.641762,194.012088 L128.641762,181.27422 C128.641762,181.025286 128.842885,180.824881 129.090698,180.824881 L186.362383,180.824881 Z M185.912549,181.723559 L129.539634,181.723559 L129.539634,193.562749 L185.912549,193.562749 L185.912549,181.723559 Z M206.537305,116.988428 C206.785118,116.988428 206.986241,117.188833 206.986241,117.437767 C206.986241,117.685803 206.785118,117.887107 206.537305,117.887107 L109.365071,117.887107 L109.365071,191.550878 C109.365071,191.798913 109.163948,192.000217 108.916135,192.000217 C108.668322,192.000217 108.467199,191.798913 108.467199,191.550878 L108.467199,117.437767 C108.467199,117.188833 108.668322,116.988428 108.916135,116.988428 L206.537305,116.988428 Z M206.536946,168.665313 C206.784759,168.665313 206.985882,168.866617 206.985882,169.114652 C206.985882,169.362687 206.784759,169.563991 206.536946,169.563991 L128.150895,169.563991 C127.903082,169.563991 127.701959,169.362687 127.701959,169.114652 C127.701959,168.866617 127.903082,168.665313 128.150895,168.665313 L206.536946,168.665313 Z M199.305751,157.519184 C199.553564,157.519184 199.754688,157.720488 199.754688,157.968523 C199.754688,158.216559 199.553564,158.417863 199.305751,158.417863 L142.613194,158.417863 C142.365381,158.417863 142.164258,158.216559 142.164258,157.968523 C142.164258,157.720488 142.365381,157.519184 142.613194,157.519184 L199.305751,157.519184 Z M124.680618,133.200407 C130.669427,133.200407 135.54218,138.077535 135.54218,144.072619 C135.54218,150.066804 130.669427,154.943931 124.680618,154.943931 C118.690912,154.943931 113.818159,150.066804 113.818159,144.072619 C113.818159,138.077535 118.690912,133.200407 124.680618,133.200407 Z M124.680618,134.099085 C119.186537,134.099085 114.716031,138.573605 114.716031,144.072619 C114.716031,149.571632 119.186537,154.045253 124.680618,154.045253 C130.174699,154.045253 134.644308,149.571632 134.644308,144.072619 C134.644308,138.573605 130.174699,134.099085 124.680618,134.099085 Z M199.305751,145.359796 C199.553564,145.359796 199.754688,145.5611 199.754688,145.809135 C199.754688,146.05717 199.553564,146.258474 199.305751,146.258474 L142.613194,146.258474 C142.365381,146.258474 142.164258,146.05717 142.164258,145.809135 C142.164258,145.5611 142.365381,145.359796 142.613194,145.359796 L199.305751,145.359796 Z M199.305751,133.200407 C199.553564,133.200407 199.754688,133.401711 199.754688,133.649746 C199.754688,133.897781 199.553564,134.099085 199.305751,134.099085 L142.613194,134.099085 C142.365381,134.099085 142.164258,133.897781 142.164258,133.649746 C142.164258,133.401711 142.365381,133.200407 142.613194,133.200407 L199.305751,133.200407 Z" id="Combined-Shape" fill="#0a0c0e"/><path d="M72.9045404,65.7455154 C73.1532511,65.7455154 73.3534766,65.9468194 73.3534766,66.1948546 L73.3534766,145.808775 C73.3534766,146.057709 73.1532511,146.258115 72.9045404,146.258115 L9.84965957,146.258115 C9.60094894,146.258115 9.4007234,146.057709 9.4007234,145.808775 L9.4007234,66.1948546 C9.4007234,65.9468194 9.60094894,65.7455154 9.84965957,65.7455154 L72.9045404,65.7455154 Z M72.4565021,66.6441938 L10.2985957,66.6441938 L10.2985957,145.359436 L72.4565021,145.359436 L72.4565021,66.6441938 Z M147.530751,90.9326855 C147.778564,90.9326855 147.979687,91.1339894 147.979687,91.3820247 C147.979687,91.6300599 147.778564,91.8313639 147.530751,91.8313639 L81.5829255,91.8313639 C81.3342149,91.8313639 81.1339894,91.6300599 81.1339894,91.3820247 C81.1339894,91.1339894 81.3342149,90.9326855 81.5829255,90.9326855 L147.530751,90.9326855 Z M147.530751,82.537052 C147.778564,82.537052 147.979687,82.7383559 147.979687,82.9863912 C147.979687,83.2344264 147.778564,83.4357304 147.530751,83.4357304 L81.5829255,83.4357304 C81.3342149,83.4357304 81.1339894,83.2344264 81.1339894,82.9863912 C81.1339894,82.7383559 81.3342149,82.537052 81.5829255,82.537052 L147.530751,82.537052 Z M147.530751,74.1413286 C147.778564,74.1413286 147.979687,74.3426326 147.979687,74.5906678 C147.979687,74.8387031 147.778564,75.040007 147.530751,75.040007 L81.5829255,75.040007 C81.3342149,75.040007 81.1339894,74.8387031 81.1339894,74.5906678 C81.1339894,74.3426326 81.3342149,74.1413286 81.5829255,74.1413286 L147.530751,74.1413286 Z M147.530751,65.7456053 C147.778564,65.7456053 147.979687,65.9469093 147.979687,66.1949445 C147.979687,66.4429797 147.778564,66.6442837 147.530751,66.6442837 L81.5829255,66.6442837 C81.3342149,66.6442837 81.1339894,66.4429797 81.1339894,66.1949445 C81.1339894,65.9469093 81.3342149,65.7456053 81.5829255,65.7456053 L147.530751,65.7456053 Z M156.641911,44.0329057 C156.889723,44.0329057 157.090847,44.233311 157.090847,44.4822449 L157.090847,53.6011348 C157.090847,53.84917 156.889723,54.050474 156.641911,54.050474 L0.44893617,54.050474 C0.201123404,54.050474 8.52651283e-14,53.84917 8.52651283e-14,53.6011348 C8.52651283e-14,53.3530996 0.201123404,53.1517956 0.44893617,53.1517956 L156.192974,53.1517956 L156.192974,44.4822449 C156.192974,44.233311 156.394098,44.0329057 156.641911,44.0329057 Z M20.8325238,46.3485304 C22.2754047,46.3485304 23.4507196,47.5240018 23.4507196,48.9690767 C23.4507196,50.4141515 22.2754047,51.5905216 20.8325238,51.5905216 C19.389643,51.5905216 18.2143281,50.4141515 18.2143281,48.9690767 C18.2143281,47.5240018 19.389643,46.3485304 20.8325238,46.3485304 Z M30.0883306,46.3485304 C31.5312115,46.3485304 32.7065264,47.5240018 32.7065264,48.9690767 C32.7065264,50.4141515 31.5312115,51.5905216 30.0883306,51.5905216 C28.6454498,51.5905216 27.4701349,50.4141515 27.4701349,48.9690767 C27.4701349,47.5240018 28.6454498,46.3485304 30.0883306,46.3485304 Z M39.3441374,46.3485304 C40.7870183,46.3485304 41.9623332,47.5240018 41.9623332,48.9690767 C41.9623332,50.4141515 40.7870183,51.5905216 39.3441374,51.5905216 C37.9012566,51.5905216 36.7259417,50.4141515 36.7259417,48.9690767 C36.7259417,47.5240018 37.9012566,46.3485304 39.3441374,46.3485304 Z M20.8325238,47.2472088 C19.8834728,47.2472088 19.1122004,48.0191736 19.1122004,48.9690767 C19.1122004,49.9189797 19.8834728,50.6918432 20.8325238,50.6918432 C21.7815749,50.6918432 22.5528472,49.9189797 22.5528472,48.9690767 C22.5528472,48.0191736 21.7815749,47.2472088 20.8325238,47.2472088 Z M30.0883306,47.2472088 C29.1392796,47.2472088 28.3680072,48.0191736 28.3680072,48.9690767 C28.3680072,49.9189797 29.1392796,50.6918432 30.0883306,50.6918432 C31.0373817,50.6918432 31.808654,49.9189797 31.808654,48.9690767 C31.808654,48.0191736 31.0373817,47.2472088 30.0883306,47.2472088 Z M39.3441374,47.2472088 C38.3950864,47.2472088 37.623814,48.0191736 37.623814,48.9690767 C37.623814,49.9189797 38.3950864,50.6918432 39.3441374,50.6918432 C40.2931885,50.6918432 41.0644609,49.9189797 41.0644609,48.9690767 C41.0644609,48.0191736 40.2931885,47.2472088 39.3441374,47.2472088 Z" id="Combined-Shape" fill="#0a0c0e"/><path d="M176.367268,83.5993797 L190.255557,87.7144282 C191.157021,87.9813357 191.446136,89.1172652 190.780813,89.7831859 L187.051949,93.5136993 L193.054764,99.5210855 C193.756003,100.222953 193.756003,101.36068 193.054764,102.062548 C192.703696,102.413931 192.244883,102.589174 191.785173,102.589174 C191.325462,102.589174 190.866649,102.413931 190.515581,102.062548 L184.512949,96.0546993 L181.002983,99.5688952 C180.338557,100.234816 179.203647,99.9463401 178.936979,99.044067 L174.825621,85.1424106 C174.546383,84.1987982 175.423604,83.3198907 176.367268,83.5993797 Z" id="Combined-Shape" fill="#0a0c0e"/></g></g></g><g id="Desk" transform="translate(161.000000, 285.770000)"><polygon fill="#76abab" points="268.0898 54.7969 1.3518 54.7969 1.3518 121.4819 84.7078 121.4819 84.7078 73.6429 268.0898 73.6429"/><path d="M268.0898,54.2969 C267.8138,54.2969 267.5898,54.5209 267.5898,54.7969 L267.5898,73.3839 L1.8518,73.3839 L1.8518,54.7969 C1.8518,54.5209 1.6288,54.2969 1.3518,54.2969 C1.0758,54.2969 0.8518,54.5209 0.8518,54.7969 L0.8518,243.0109 C0.8518,243.2869 1.0758,243.5109 1.3518,243.5109 C1.6288,243.5109 1.8518,243.2869 1.8518,243.0109 L1.8518,74.3839 L267.5898,74.3839 L267.5898,243.0109 C267.5898,243.2869 267.8138,243.5109 268.0898,243.5109 C268.3658,243.5109 268.5898,243.2869 268.5898,243.0109 L268.5898,54.7969 C268.5898,54.5209 268.3658,54.2969 268.0898,54.2969 L268.0898,54.2969 Z M26.2548,84.7389 L60.2878,84.7389 L60.2878,83.0819 L26.2548,83.0819 L26.2548,84.7389 Z M60.7878,82.0819 L25.7548,82.0819 C25.4788,82.0819 25.2548,82.3059 25.2548,82.5819 L25.2548,85.2389 C25.2548,85.5159 25.4788,85.7389 25.7548,85.7389 L60.7878,85.7389 C61.0648,85.7389 61.2878,85.5159 61.2878,85.2389 L61.2878,82.5819 C61.2878,82.3059 61.0648,82.0819 60.7878,82.0819 L60.7878,82.0819 Z" id="Fill-44" fill="#0a0c0e"/><polygon id="Fill-45" fill="#c99dc8" points="6.4996 54.839 19.9046 54.839 19.9046 0.23 6.4996 0.23"/><polygon id="Fill-46" fill="#85a5ee" points="19.9046 54.839 33.3096 54.839 33.3096 12.338 19.9046 12.338"/><path d="M33.31,11.8377 C33.033,11.8377 32.81,12.0617 32.81,12.3377 L32.81,54.3387 L20.405,54.3387 L20.405,20.7897 C20.405,20.5137 20.181,20.2897 19.905,20.2897 C19.628,20.2897 19.405,20.5137 19.405,20.7897 L19.405,54.3387 L6.5,54.3387 C6.224,54.3387 6,54.5627 6,54.8387 C6,55.1157 6.224,55.3387 6.5,55.3387 L33.31,55.3387 C33.586,55.3387 33.81,55.1157 33.81,54.8387 L33.81,12.3377 C33.81,12.0617 33.586,11.8377 33.31,11.8377" id="Path" fill="#0a0c0e"/></g><g id="Chair" transform="translate(443.271900, 271.524000)"><path d="M131.249,71.057 C129.285,74.494 126.985,76.475 124.529,76.475 C117.344,76.475 111.499,59.546 111.499,38.737 C111.499,17.929 117.344,1 124.529,1 C131.713,1 137.559,17.929 137.559,38.737 C137.559,52.194 135.113,64.02 131.442,70.703 C131.331,70.788 131.259,70.913 131.249,71.057 Z M124.529,0 C116.662,0 110.499,17.015 110.499,38.737 C110.499,60.46 116.662,77.475 124.529,77.475 C127.021,77.475 129.341,75.764 131.349,72.739 C132.51,91.369 129.258,117.324 108.229,138.353 C108.034,138.549 108.034,138.865 108.229,139.06 C108.327,139.158 108.455,139.207 108.583,139.207 C108.711,139.207 108.838,139.158 108.936,139.06 C130.769,117.227 133.677,90.177 132.249,71.257 C136.075,64.408 138.559,52.524 138.559,38.737 C138.559,17.015 132.396,0 124.529,0 Z M109.083,136.821 C109.083,136.545 108.859,136.321 108.583,136.321 L0.5,136.321 C0.223,136.321 -1.27897692e-12,136.545 -1.27897692e-12,136.821 L-1.27897692e-12,150.593 C-1.27897692e-12,150.869 0.223,151.093 0.5,151.093 C0.776,151.093 1,150.869 1,150.593 L1,137.321 L108.583,137.321 C108.859,137.321 109.083,137.098 109.083,136.821 M86.426,241.555184 L57.378,222.819344 L57.378,140.49861 C57.378,140.232684 57.154,140.018598 56.878,140.018598 C56.601,140.018598 56.378,140.232684 56.378,140.49861 L56.378,222.819344 L27.159,241.664626 C26.239,241.304617 25.235,241.103012 24.18,241.103012 C19.821,241.103012 16.288,244.495739 16.288,248.679526 C16.288,252.865233 19.821,256.257 24.18,256.257 C28.539,256.257 32.073,252.865233 32.073,248.679526 C32.073,245.901215 30.509,243.478113 28.186,242.159999 L56.378,223.976174 L56.378,241.127013 C52.253,241.376619 48.985,244.657983 48.985,248.679526 C48.985,252.865233 52.519,256.257 56.878,256.257 C61.237,256.257 64.77,252.865233 64.77,248.679526 C64.77,244.657023 61.503,241.375659 57.378,241.127013 L57.378,223.976174 L85.341,242.012155 C82.876,243.294748 81.2,245.798492 81.2,248.679526 C81.2,252.865233 84.734,256.257 89.092,256.257 C93.452,256.257 96.985,252.865233 96.985,248.679526 C96.985,244.495739 93.452,241.103012 89.092,241.103012 C88.156,241.103012 87.26,241.267176 86.426,241.555184 Z" id="Fill-161" fill="#0a0c0e"/><polygon fill="#85a5ee" points="0.4991 151.593 108.5821 151.593 108.5821 137.822 0.4991 137.822"/></g><g transform="translate(481.908400, 153.500000) scale(-1, 1) translate(-481.908400, -153.500000) translate(216.408400, -222.000000) scale(1 1)" id="Master/Character/Sitting on Chair"><defs><polygon id="mastercharactersitting-on-chair-path-1" points="0 0.0003 46.889 0.0003 46.889 52.9562 0 52.9562"/></defs><g id="Master/Character/Sitting on Chair" stroke="none" stroke-width="1" fill="none" fill-rule="evenodd"><g id="Lower Body/Sitting on Chair" transform="translate(71.000000, 393.000000) scale(1 1)"><g id="Lower Body/Sitting on Chair/Long Pants Blue" stroke="none" stroke-width="1" fill="none" fill-rule="evenodd"><g id="Group" transform="translate(136.000237, 172.000500)"><path d="M171.995463,183.4617 C165.998463,179.7867 138.348463,169.5077 137.720463,161.1367 C136.744463,148.1447 136.777463,127.3727 136.950463,112.4327 C128.895463,113.2817 119.621463,114.1667 109.759463,114.9307 L120.922463,161.3367 C121.462463,165.5237 122.189463,165.9247 117.637463,175.4227 C116.646463,177.4877 116.446463,179.1507 116.715463,180.4927 C106.534463,175.7087 88.8334635,167.8157 88.3324635,161.1367 C87.3564635,148.1447 87.3904635,127.3727 87.5624635,112.4327 C79.5074635,113.2817 70.2344635,114.1667 60.3714635,114.9307 L71.5344635,161.3367 C72.0744635,165.5237 72.8014635,165.9247 68.2494635,175.4227 C63.9354635,184.4197 74.4884635,185.8437 74.4884635,185.8437 L121.891463,185.962706 C122.237463,185.9637 122.549463,185.8297 122.788463,185.6167 C123.441463,185.7837 123.875463,185.8437 123.875463,185.8437 L171.278463,185.962706 C172.026463,185.9647 172.632463,185.3587 172.632463,184.6117 C172.632463,184.1417 172.396463,183.7067 171.995463,183.4617" id="Skin" fill="#ad8b7b"/><path d="M171.995463,183.4617 C170.256463,182.3967 153.927463,173.7117 149.204463,172.0627 C145.635463,179.7677 122.364463,176.1377 120.171463,169.7407 C120.142463,169.8117 117.416463,175.3697 117.388463,175.4407 C116.625463,177.3807 116.470463,178.9597 116.692463,180.2497 C111.001463,177.2507 102.913463,173.1447 99.8174635,172.0627 C96.2474635,179.7677 72.9764635,176.1377 70.7834635,169.7407 C70.7554635,169.8117 68.0284635,175.3697 68.0004635,175.4407 C64.3504635,184.7277 74.4884635,185.8437 74.4884635,185.8437 L121.891463,185.962706 C122.227463,185.9637 122.532463,185.8367 122.769463,185.6337 C123.432463,185.7937 123.875463,185.8437 123.875463,185.8437 L171.279463,185.962706 C172.026463,185.9647 172.632463,185.3587 172.632463,184.6117 C172.632463,184.1417 172.396463,183.7067 171.995463,183.4617" id="Shoes" fill="#76abab"/><path d="M125.389783,162.106314 L141.36312,160.57927 C143.10512,160.31527 144.29312,158.67527 143.99912,156.93627 L135.628463,41.5715 C134.075463,30.1775 124.243463,21.6165 112.606463,21.8305 L96.2224635,22.1345 L94.3504635,0.4995 L6.65046348,0.4995 C6.65046348,0.4995 -3.29353652,37.0775 1.13746348,49.8745 C5.12746348,61.4015 13.5404635,69.4065 51.7264635,66.2475 L66.4175326,158.956314 C66.4145326,160.781314 67.9575326,162.227314 69.7795326,162.106314 L91.8164635,160.57927 C93.6434635,160.45727 94.9814635,158.81027 94.7284635,156.99727 L91.8164635,64.0445 L96.9244635,64.2575 L116.316084,160.52827 C116.518084,162.30427 118.153084,163.55727 119.920084,163.28927" id="Pants" fill="#4a5870"/><path d="M94.7304635,53.759 L100.071214,82.8 C100.104214,83.052 100.814214,85.7823348 101.062214,85.7823348 C101.083214,85.7823348 100.609214,83.235 100.631214,83.232 C100.905214,83.196 101.098214,82.945 101.062214,82.671 L95.7224635,53.63 C95.6864635,53.356 95.4324635,53.157 95.1614635,53.198 C94.8874635,53.234 94.6944635,53.485 94.7304635,53.759 Z M122.869463,183.035 C121.104463,181.955 104.807463,173.275 99.9824635,171.591 C99.9594635,171.583 99.9364635,171.586 99.9134635,171.581 C99.8784635,171.574 99.8444635,171.565 99.8094635,171.566 C99.7764635,171.566 99.7464635,171.575 99.7144635,171.582 C99.6834635,171.588 99.6544635,171.593 99.6244635,171.605 C99.5944635,171.618 99.5684635,171.637 99.5404635,171.656 C99.5154635,171.674 99.4894635,171.689 99.4674635,171.712 C99.4434635,171.735 99.4264635,171.764 99.4074635,171.793 C99.3934635,171.814 99.3744635,171.829 99.3634635,171.852 C98.0444635,174.701 93.4214635,176.198 86.9984635,175.872 C79.3724635,175.477 72.3104635,172.654 71.2564635,169.579 C71.1894635,169.386 71.0124635,169.255 70.8074635,169.244 C70.5944635,169.248 70.4134635,169.35 70.3274635,169.537 C70.2824635,169.634 69.6384635,170.95 68.9814635,172.291 C67.6224635,175.07 67.5524635,175.216 67.5354635,175.257 C67.4354635,175.509 67.5564635,175.792 67.8054635,175.898 C68.0544635,176.006 68.3434635,175.891 68.4574635,175.644 C68.5044635,175.542 69.1984635,174.124 69.8804635,172.731 C70.3014635,171.87 70.5924635,171.276 70.7924635,170.866 C73.0214635,174.236 80.4204635,176.533 86.9464635,176.871 C87.5384635,176.901 88.1164635,176.917 88.6804635,176.917 C94.3454635,176.917 98.4874635,175.38 100.051463,172.68 C105.088463,174.592 120.524463,182.772 122.347463,183.888 C122.596463,184.041 122.744463,184.311 122.744463,184.612 C122.744463,184.888 122.968463,185.112 123.244463,185.112 C123.521463,185.112 123.744463,184.888 123.744463,184.612 C123.744463,183.96 123.417463,183.371 122.869463,183.035 L122.869463,183.035 Z M90.8114635,64.078 C90.8114635,64.08 90.8124635,64.082 90.8124635,64.083 L93.2942131,104.490448 C93.3162131,104.751448 93.5782131,105.835665 93.8352131,105.835665 C93.8492131,105.835665 94.2772131,105.835665 94.2912131,105.835665 C94.5662131,105.81222 94.3142131,104.680448 94.2912131,104.404448 L91.8064635,63.981 C91.8064635,63.979 91.8054635,63.978 91.8054635,63.976 C91.8044635,63.974 91.8054635,63.972 91.8054635,63.969 L88.9314635,37.684 C87.8654635,27.943 79.6754635,20.405 69.8814635,20.148 L37.2644635,19.295 C37.0354635,19.302 36.7584635,19.506 36.7501132,19.781 C36.7444635,20.057 36.9614635,20.287 37.2374635,20.295 L69.8544635,21.148 C79.1514635,21.391 86.9254635,28.547 87.9364635,37.793 L90.8114635,64.078 Z M95.6644635,21.479 L85.7364635,21.637 C85.4594635,21.641 85.2394635,21.869 85.2444635,22.145 C85.2484635,22.419 85.4714635,22.637 85.7444635,22.637 L85.7514635,22.637 L95.8724635,22.476 C95.9704635,22.577 96.1014635,22.642 96.2324635,22.635 L112.615463,22.332 C112.756463,22.329 112.894463,22.328 113.034463,22.328 C124.656463,22.328 134.396463,31.304 135.298463,42.938 C135.319463,43.2 135.537463,43.399 135.796463,43.399 C135.809463,43.399 135.822463,43.399 135.835463,43.398 C136.111463,43.377 136.317463,43.136 136.295463,42.861 C135.341463,30.559 124.926463,21.098 112.597463,21.332 L101.302463,21.541 C101.204463,21.447 101.077463,21.39 100.957463,21.395 L96.6664635,21.464 L94.8494635,0.457 C94.8264635,0.198 94.6104635,4.26325641e-14 94.3504635,4.26325641e-14 L6.64946348,4.26325641e-14 C6.37346348,4.26325641e-14 6.14946348,0.223 6.14946348,0.5 C6.14946348,0.776 6.37346348,1 6.64946348,1 L93.8924635,1 L95.6644635,21.479 Z M149.415463,171.608 C149.166463,171.492 148.867463,171.601 148.751463,171.852 C147.431463,174.701 142.808463,176.198 136.386463,175.872 C128.760463,175.477 121.698463,172.654 120.643463,169.579 C120.577463,169.386 120.399463,169.255 120.195463,169.244 C119.981463,169.248 119.801463,169.35 119.715463,169.537 C119.670463,169.634 119.025463,170.95 118.369463,172.291 C117.010463,175.07 116.939463,175.216 116.923463,175.257 C116.823463,175.509 116.943463,175.792 117.192463,175.898 C117.441463,176.006 117.730463,175.891 117.845463,175.644 C117.891463,175.542 118.586463,174.124 119.267463,172.731 C119.688463,171.87 119.979463,171.276 120.180463,170.866 C122.409463,174.236 129.807463,176.533 136.334463,176.871 C136.926463,176.901 137.504463,176.917 138.067463,176.917 C144.015463,176.917 148.290463,175.226 149.659463,172.272 C149.774463,172.022 149.666463,171.724 149.415463,171.608 L149.415463,171.608 Z M128.452463,164.623 C128.515463,164.353 128.348463,164.085 128.079463,164.021 C127.803463,163.961 127.541463,164.126 127.477463,164.394 L127.097463,166.023 C126.627463,168.039 127.219463,170.114 128.681463,171.576 C128.779463,171.674 128.907463,171.722 129.035463,171.722 C129.163463,171.722 129.291463,171.674 129.389463,171.576 C129.584463,171.381 129.584463,171.064 129.389463,170.869 C128.172463,169.653 127.680463,167.927 128.071463,166.251 L128.452463,164.623 Z M79.0644635,164.623 C79.1274635,164.353 78.9604635,164.085 78.6914635,164.021 C78.4154635,163.961 78.1534635,164.126 78.0904635,164.394 L77.7094635,166.023 C77.2394635,168.039 77.8314635,170.114 79.2944635,171.576 C79.3914635,171.674 79.5194635,171.722 79.6474635,171.722 C79.7754635,171.722 79.9034635,171.674 80.0014635,171.576 C80.1964635,171.381 80.1964635,171.064 80.0014635,170.869 C78.7844635,169.653 78.2924635,167.927 78.6834635,166.251 L79.0644635,164.623 Z" id="Fill-9" fill="#0a0c0e"/></g></g></g><g id="Upper Body" transform="translate(8.000000, 265.000000) scale(1 1)"><g id="Upper Body/Video Call" stroke="none" stroke-width="1" fill="none" fill-rule="evenodd"><path d="M252.135,198.2885 C247.49,202.1595 236.136,181.5155 236.136,181.5155 C236.136,181.5155 205.944,178.1605 182.203,215.3195 C182.203,215.3195 196.912,228.2215 211.105,230.5455 C211.105,230.5455 204.654,298.7715 206.202,303.4155 C208.082649,304.967817 209.716983,305.771244 211.105,305.825781 C243.019722,307.079764 276.004357,304.185399 293.471094,305.825781 C298.548248,306.3026 301.169862,303.495048 301.335937,297.403125 L296.777,228.4805 C296.777,228.4805 311.164,226.9315 326.13,219.9655 C326.13,219.9655 312.776,180.9995 264.521,182.0315 C264.521,182.0315 256.779,194.4185 252.135,198.2885 Z" id="Fill" fill="#76abab"/><path d="M206.2022,303.4158 C205.9932,303.4158 205.7982,303.6248 205.7282,303.4158 C204.1632,298.7238 210.3442,233.0808 210.6072,230.4948 C210.6162,230.4238 211.3832,223.9238 214.8392,216.1488 C214.9522,215.8968 215.2482,215.7828 215.4992,215.8948 C215.7512,216.0068 215.8652,216.3028 215.7532,216.5548 C212.3632,224.1818 211.6092,230.5388 211.6012,230.6018 C209.3752,252.4258 205.4782,299.8228 206.6762,303.4158 C206.7642,303.6778 206.6222,303.3288 206.3602,303.4158 C206.3072,303.4338 206.2542,303.4158 206.2022,303.4158" id="Fill-6" fill="#0a0c0e"/><path d="M231.0851,215.1237 C232.5351,212.7477 242.6831,203.6067 243.4071,205.6607 C244.1311,207.7137 234.8301,217.0157 234.8301,217.0157 C234.8301,217.0157 249.5681,204.5737 251.7431,206.5057 C253.9171,208.4387 237.4881,221.0027 237.4881,221.0027 L237.514161,220.984785 C238.281774,220.457614 255.760155,208.48914 257.1421,210.7337 C258.5551,213.0297 239.7831,224.8687 239.7831,224.8687 C239.7831,224.8687 255.6081,215.9287 257.0591,217.8617 C258.5081,219.7947 242.2821,229.6887 242.2821,229.6887 C243.7321,231.1377 253.2731,229.2167 253.2731,229.2167 C256.3331,230.5057 247.6921,235.2797 240.6051,236.4067 C235.2891,237.2527 225.9861,252.0997 224.6931,253.6677 C217.5971,262.2707 195.8841,287.0317 180.4601,287.7877 C161.7831,288.7027 171.2471,239.7177 184.5531,217.2397 L184.5531,217.2397 L187.3741,219.3577 C192.0151,222.8847 199.0501,227.5567 208.1601,229.9157 L208.1601,229.9157 L208.1611,229.9167 L200.6021,246.5797 L211.8771,237.5527 C211.8771,237.5527 223.3531,229.3377 224.8031,225.1097 C226.2531,220.8817 231.0851,215.1237 231.0851,215.1237 Z M323.5415,221.1189 C323.5415,221.1189 342.2835,254.7049 327.3035,285.8729 C327.3035,285.8729 303.6255,294.8129 258.2035,258.3299 C258.2035,258.3299 242.4985,261.2289 234.5255,249.6319 L269.0755,252.0479 C269.0755,252.0479 307.0085,262.2489 309.6665,261.7389 C309.6665,261.7389 302.0095,252.7519 296.7775,228.4809 C296.7775,228.4809 314.4635,225.4659 323.5415,221.1189 Z M257.346434,172.9998 L257.346434,182.0318 L264.521,182.0318 C264.521,182.0318 256.779,194.4178 252.134,198.2888 C247.49,202.1598 236.135,181.5158 236.135,181.5158 L236.135,181.5158 L243.669434,181.5158 L243.669434,172.9998 L257.346434,172.9998 Z" id="Skin" fill="#ad8b7b"/><path d="M298.553265,259.578621 L296.278,228.4608 C296.288,228.2138 296.477,228.0098 296.724,227.9838 C296.866,227.9688 310.934,226.3918 325.499,219.7068 C323.858,215.515806 309.198,181.7178 264.801,182.5258 C263.687,184.2898 256.813,195.0408 252.455,198.6728 C251.829,199.1938 251.078,199.3768 250.224,199.2158 C244.792,198.1898 236.066,182.4278 235.698,181.7568 C235.564,181.5148 235.653,181.2108 235.895,181.0778 C236.136,180.9448 236.441,181.0328 236.574,181.2748 C236.662,181.4348 245.438,197.2948 250.409,198.2328 C250.961,198.3358 251.423,198.2298 251.814,197.9038 C256.344,194.1298 264.02,181.8898 264.097,181.7668 C264.187,181.6238 264.342,181.5358 264.51,181.5318 C289.606,180.9998 305.161,191.4208 313.779,200.2618 C323.12,209.8448 326.57,219.7048 326.604,219.8028 C326.686,220.0448 326.573,220.3108 326.341,220.4178 C312.905,226.6728 299.774,228.6008 297.26,228.9248 L299.514509,259.639688 C299.514509,259.919922 299.320265,259.717227 299.053265,259.717227" id="Fill-8" fill="#0a0c0e"/><path d="M200.6026,247.0794 C200.4946,247.0794 200.3866,247.0444 200.2956,246.9744 C200.1136,246.8324 200.0516,246.5834 200.1466,246.3724 L207.7056,229.7094 C207.8196,229.4584 208.1146,229.3464 208.3676,229.4604 C208.6186,229.5754 208.7296,229.8714 208.6166,230.1224 L201.9206,244.8834 L211.5646,237.1624 C211.6996,237.0654 222.9486,228.9764 224.3306,224.9474 C225.7936,220.6814 230.5016,215.0394 230.7026,214.8024 C231.9466,212.7514 240.6816,204.5964 243.0656,204.8694 C243.4566,204.9104 243.7526,205.1384 243.8786,205.4944 C244.3076,206.7124 242.2426,209.5774 239.9456,212.2584 C244.6676,208.6514 250.5156,204.7444 252.0756,206.1324 C252.2516,206.2884 252.4576,206.5724 252.4406,207.0364 C252.3786,208.6974 248.7506,212.2624 245.1046,215.4374 C249.7856,212.5504 255.1036,209.6234 256.8426,209.9914 C257.2506,210.0774 257.4626,210.3004 257.5676,210.4714 C258.1256,211.3774 257.5776,213.1064 249.2846,219.0684 C248.8546,219.3764 248.4236,219.6834 247.9946,219.9844 C255.3446,216.4984 257.0636,217.0364 257.4586,217.5614 C257.5776,217.7204 257.7026,217.9914 257.6276,218.3844 C257.1456,220.8874 246.9126,227.4144 243.3396,229.6254 C245.2106,229.9914 249.9016,229.3854 253.1746,228.7264 C253.4426,228.6704 253.7086,228.8474 253.7636,229.1184 C253.8176,229.3894 253.6426,229.6524 253.3716,229.7074 C251.7346,230.0374 243.4896,231.6024 241.9286,230.0424 C241.8206,229.9334 241.7676,229.7814 241.7856,229.6294 C241.8036,229.4774 241.8916,229.3414 242.0216,229.2624 C250.2816,224.2244 256.8436,219.2364 256.6496,218.1424 C255.9146,217.3604 248.3026,220.6304 240.0296,225.3044 C239.7936,225.4354 239.4936,225.3584 239.3536,225.1244 C239.2146,224.8914 239.2876,224.5904 239.5166,224.4454 C249.2606,218.2994 257.1376,212.1404 256.7156,210.9944 C255.8076,210.1984 247.1326,214.9674 237.7716,221.4134 C237.5476,221.5684 237.2426,221.5154 237.0826,221.2964 C236.9236,221.0764 236.9686,220.7694 237.1846,220.6054 C242.6566,216.4204 251.3666,209.0264 251.4406,206.9994 C251.4446,206.9094 251.4226,206.8904 251.4116,206.8794 C250.5126,206.0904 244.0496,209.8874 235.1526,217.3974 C234.9476,217.5704 234.6436,217.5514 234.4616,217.3544 C234.2806,217.1574 234.2876,216.8514 234.4766,216.6624 C238.8426,212.2954 243.3176,206.9114 242.9356,205.8274 C241.9296,205.5044 233.3956,212.2964 231.5116,215.3834 C231.4206,215.5014 226.6786,221.1824 225.2766,225.2714 C223.7916,229.6014 212.6426,237.6204 212.1676,237.9594 L200.9146,246.9694 C200.8236,247.0424 200.7136,247.0794 200.6026,247.0794" id="Fill-13" fill="#0a0c0e"/><path d="M180.4595,288.2874 C180.1945,288.2874 179.9735,288.0794 179.9605,287.8114 C179.9475,287.5364 180.1595,287.3014 180.4355,287.2874 C195.7885,286.5354 217.8975,261.1204 224.3075,253.3494 C224.4835,253.1364 224.7985,253.1064 225.0115,253.2814 C225.2245,253.4574 225.2545,253.7724 225.0795,253.9854 C200.1625,284.1934 185.5925,288.0364 180.4845,288.2874 C180.4765,288.2874 180.4675,288.2874 180.4595,288.2874" id="Fill-15" fill="#0a0c0e"/><path d="M185.5352,262.2391 C185.4392,262.2391 185.3422,262.2121 185.2562,262.1541 C185.0272,262.0001 184.9672,261.6891 185.1202,261.4601 C191.0232,252.6861 200.2242,246.2331 200.3172,246.1691 C200.5452,246.0111 200.8552,246.0671 201.0132,246.2941 C201.1712,246.5211 201.1152,246.8321 200.8882,246.9901 C200.7972,247.0531 191.7452,253.4041 185.9512,262.0181 C185.8542,262.1611 185.6962,262.2391 185.5352,262.2391" id="Fill-17" fill="#0a0c0e"/><path d="M253.9458,259.1326 C248.5958,259.1326 239.5568,257.8326 234.1128,249.9146 C233.9568,249.6876 234.0148,249.3766 234.2418,249.2196 C234.4698,249.0626 234.7808,249.1206 234.9378,249.3486 C242.6308,260.5376 257.9578,257.8656 258.1128,257.8386 C258.3798,257.7846 258.6448,257.9666 258.6948,258.2396 C258.7448,258.5106 258.5658,258.7716 258.2938,258.8216 C258.2418,258.8316 256.5208,259.1326 253.9458,259.1326" id="Fill-21" fill="#0a0c0e"/><path d="M309.666,262.2391 C309.525,262.2391 309.384,262.1791 309.286,262.0631 C308.969,261.6931 301.487,252.7031 296.289,228.5861 C296.26,228.4531 296.287,228.3141 296.363,228.2001 C296.439,228.0881 296.559,228.0111 296.693,227.9881 C296.87,227.9581 314.415,224.9341 323.326,220.6681 C323.574,220.5481 323.874,220.6541 323.993,220.9031 C324.112,221.1521 324.006,221.4501 323.757,221.5701 C315.591,225.4801 300.365,228.3441 297.376,228.8831 C302.51,252.3341 309.972,261.3261 310.047,261.4151 C310.226,261.6251 310.2,261.9411 309.99,262.1201 C309.895,262.2001 309.781,262.2391 309.666,262.2391" id="Fill-23" fill="#0a0c0e"/><path d="M316.9683,269.1473 C316.8203,269.1473 316.6733,269.0813 316.5743,268.9553 C312.5393,263.8023 309.4693,262.2003 309.4383,262.1843 C309.1933,262.0593 309.0953,261.7573 309.2203,261.5113 C309.3453,261.2663 309.6443,261.1683 309.8933,261.2933 C310.0263,261.3613 313.1913,263.0143 317.3613,268.3393 C317.5313,268.5563 317.4933,268.8713 317.2763,269.0413 C317.1843,269.1123 317.0763,269.1473 316.9683,269.1473" id="Fill-25" fill="#0a0c0e"/><polygon id="Computer" fill="#d4ebf3" points="277.189 210.906 263.276 248.119 263.217 248.104 224.693 248.104 224.693 249.104 260.561 255.382 315.259 255.382 335.345 210.906"/><path d="M260.7276,253.9798 C260.6996,253.9798 260.6716,253.9778 260.6446,253.9728 L224.8186,248.3368 C224.5466,248.2918 224.3626,248.0328 224.4086,247.7608 C224.4546,247.4888 224.7096,247.3058 224.9846,247.3508 L260.3976,252.9178 L276.5166,210.3808 C276.5876,210.1828 276.7756,210.0498 276.9866,210.0498 L335.3006,210.0498 C335.4706,210.0498 335.6286,210.1358 335.7206,210.2788 C335.8126,210.4218 335.8256,210.6018 335.7556,210.7558 L320.4396,244.6688 C320.3266,244.9208 320.0276,245.0328 319.7786,244.9188 C319.5266,244.8058 319.4146,244.5098 319.5286,244.2578 L334.5256,211.0498 L277.3386,211.0498 L261.1976,253.6488 C261.1256,253.8498 260.9356,253.9798 260.7276,253.9798" id="Fill-29" fill="#0a0c0e"/></g></g><g id="Hair" transform="translate(104.000000, 285.000000) scale(1 1)"><defs><polygon id="hairshort-bieber-path-1" points="0 0.0003 46.889 0.0003 46.889 52.9562 0 52.9562"/></defs><g id="Hair/Short Bieber" stroke="none" stroke-width="1" fill="none" fill-rule="evenodd"><g id="Head" transform="translate(132.000000, 111.000000)"><path d="M44.1789,24.3663 C44.5879,35.6913 33.3599,45.0883 22.4569,45.0883 C11.5539,45.0883 0.4939,36.9643 0.0189,25.3903 C-0.4461,14.0673 7.7449,1.3583 15.9329,0.2613 C32.6079,-1.9747 43.6789,10.5083 44.1789,24.3663" id="Fill-1" fill="#0a0c0e"/><path d="M22.4567,44.088 C12.4757,44.088 1.4787,36.559 1.0177,25.35 C0.5797,14.678 8.3147,2.291 16.0657,1.252 C17.3127,1.085 18.5577,1 19.7657,1 C34.4247,1 42.7697,13.058 43.1797,24.402 C43.3447,28.984 41.4627,33.553 37.8807,37.268 C33.7607,41.538 27.9947,44.088 22.4567,44.088" id="Fill-4" fill="#ad8b7b"/></g><path d="M160.9833,116.9661 C160.9833,116.9661 165.2843,134.0361 181.2833,134.3811 C181.2833,134.3811 185.4953,107.6511 160.8943,104.0371 C160.8943,104.0371 160.7223,99.3931 164.1633,97.5001 C164.1633,97.5001 158.3143,97.1561 156.0773,103.3501 C156.0773,103.3501 149.7763,98.3611 146.3363,100.0801 C146.3363,100.0801 152.2923,103.5221 149.5403,105.2411 C149.5403,105.2411 132.0053,108.3641 128.7373,120.5781 C125.4683,132.7931 134.0523,143.7441 135.3943,149.4571 C135.3943,149.4571 135.7243,147.9551 135.3943,144.0981 C135.3943,144.0981 135.7443,144.5331 136.9843,146.9721 C136.9843,146.9721 145.4373,136.8181 142.0443,130.2571 C142.0443,130.2571 149.6293,128.8361 149.9733,122.6431 C149.9733,122.6431 150.8333,126.4281 158.4023,128.1491 C158.4023,128.1491 155.9083,125.2241 156.2093,123.5031 C156.2093,123.5031 158.5213,126.6801 164.9403,128.1491 C164.9403,128.1491 160.3643,121.1791 160.9833,116.9661" id="Hair" fill="#ceb194"/><g id="Group-3" transform="translate(135.000000, 97.000000)"><mask id="hairshort-bieber-mask-2" fill="#ffffff"><use xlink:href="#hairshort-bieber-path-1" fill="#e0f8ff"/></mask><g id="Clip-2"/><path d="M41.2484,37.1232 C42.8154,37.5602 44.5134,37.8412 46.3784,37.8812 C46.5834,37.8552 46.8074,37.7362 46.8704,37.5192 C46.9324,37.3002 46.8394,37.0662 46.6444,36.9512 C46.5504,36.8942 37.2404,31.2732 37.6204,22.8952 C37.6334,22.6202 37.4194,22.3862 37.1434,22.3742 C36.8954,22.3502 36.6344,22.5742 36.6214,22.8512 C36.3094,29.7272 41.8124,34.7012 44.5924,36.7652 C30.6324,35.2452 26.6144,20.0042 26.5744,19.8442 C26.5154,19.6122 26.2994,19.4372 26.0634,19.4672 C25.8254,19.4782 25.6294,19.6572 25.5944,19.8942 C25.0964,23.2802 27.7024,28.2042 28.9714,30.3572 C28.1354,30.1192 27.3904,29.8512 26.7144,29.5702 C25.2244,28.9282 23.4714,27.9382 21.9294,26.4532 C21.7924,26.3032 21.7224,26.2122 21.7184,26.2072 C21.6844,26.1612 21.6324,26.1392 21.5854,26.1072 C20.0994,24.5682 18.8534,22.5392 18.3124,19.8662 C18.2574,19.5962 17.9954,19.4212 17.7234,19.4762 C17.4524,19.5302 17.2774,19.7952 17.3314,20.0652 C17.9094,22.9152 19.2274,25.0832 20.8024,26.7302 C20.7684,27.8942 21.5614,29.3142 22.2394,30.3032 C16.3854,28.5822 15.5734,25.5602 15.5664,25.5322 C15.5614,25.5122 15.5494,25.4952 15.5424,25.4762 C15.5314,25.4442 15.5194,25.4152 15.5034,25.3872 C15.4934,25.3702 15.4814,25.3562 15.4704,25.3422 C15.3724,25.2112 15.2224,25.1232 15.0484,25.1442 C15.0464,25.1442 15.0444,25.1452 15.0424,25.1452 C15.0404,25.1452 15.0394,25.1442 15.0374,25.1442 C14.9734,25.1492 14.9144,25.1672 14.8594,25.1932 C14.8484,25.1992 14.8394,25.2102 14.8284,25.2172 C14.7864,25.2412 14.7464,25.2692 14.7134,25.3052 C14.6984,25.3212 14.6894,25.3412 14.6774,25.3582 C14.6544,25.3912 14.6324,25.4232 14.6174,25.4602 C14.6074,25.4832 14.6054,25.5102 14.5994,25.5352 C14.5934,25.5612 14.5814,25.5872 14.5804,25.6152 C14.4014,28.8262 12.0784,30.6802 10.0604,31.6912 C9.1804,32.1042 8.2694,32.4302 7.4134,32.6832 C7.1984,32.7372 7.0664,32.7642 7.0574,32.7662 C7.0164,32.7732 6.9834,32.7982 6.9464,32.8152 C5.0864,33.3222 3.6074,33.4852 3.5664,33.4892 C3.2914,33.5172 3.0914,33.7632 3.1194,34.0372 C3.1454,34.2952 3.3634,34.4862 3.6164,34.4862 C3.6334,34.4862 3.6504,34.4852 3.6674,34.4832 C3.8294,34.4672 5.1574,34.3222 6.8704,33.8882 C9.1564,39.1862 3.8374,46.8572 2.1774,49.0492 C1.2314,47.2312 0.9244,46.8282 0.8904,46.7842 C0.7524,46.6132 0.5194,46.5522 0.3134,46.6342 C0.1094,46.7152 -0.0176,46.9212 0.0014,47.1412 C0.3184,50.8422 0.0144,52.3372 0.0114,52.3522 C-0.0456,52.6212 0.1254,52.8872 0.3944,52.9452 C0.4304,52.9522 0.4654,52.9562 0.5004,52.9562 C0.7304,52.9562 0.9364,52.7982 0.9884,52.5642 C0.9994,52.5142 1.2064,51.5312 1.1294,49.2022 C1.2804,49.4882 1.4514,49.8182 1.6444,50.1982 C1.7214,50.3492 1.8674,50.4502 2.0344,50.4692 C2.2044,50.4872 2.3674,50.4212 2.4744,50.2922 C2.5254,50.2312 2.7394,49.9702 3.0554,49.5552 L3.6864,48.6942 C5.8644,45.6322 9.9954,38.8102 7.8644,33.6122 C10.9354,32.6912 14.6784,30.8612 15.4434,27.3552 C16.4714,28.7002 18.6874,30.5652 23.3974,31.6362 C23.6104,31.6872 23.8254,31.5932 23.9364,31.4072 C24.0484,31.2232 24.0284,30.9882 23.8894,30.8242 C23.2964,30.1302 22.5084,28.9962 22.0854,27.9922 C23.0234,28.7892 24.5814,29.8452 26.9044,30.7232 C26.9154,30.7272 26.9264,30.7312 26.9374,30.7362 C27.0404,30.7742 27.1374,30.8142 27.2434,30.8522 C28.8094,31.4382 29.9304,31.6362 29.9644,31.6422 C29.9924,31.6462 30.0194,31.6482 30.0464,31.6482 C30.1074,31.6482 30.1664,31.6372 30.2224,31.6162 C30.2284,31.6132 30.2324,31.6082 30.2394,31.6062 C30.3174,31.5722 30.3834,31.5182 30.4354,31.4502 C30.4414,31.4432 30.4514,31.4412 30.4564,31.4342 C30.4594,31.4302 30.4584,31.4242 30.4604,31.4202 C30.4984,31.3632 30.5274,31.3012 30.5394,31.2292 C30.5414,31.2132 30.5364,31.1982 30.5374,31.1822 C30.5394,31.1602 30.5364,31.1412 30.5354,31.1192 C30.5304,31.0392 30.5104,30.9652 30.4714,30.8982 C30.4664,30.8912 30.4684,30.8822 30.4634,30.8742 C30.4334,30.8272 28.3304,27.5962 27.2124,24.2892 C29.1644,28.4052 33.1224,34.3882 40.2114,36.8042 L41.2484,37.1232 Z M14.8724,7.1132 C14.8744,7.2822 14.8274,7.5382 14.3804,7.8172 C14.1464,7.9642 14.0754,8.2712 14.2224,8.5062 C14.3684,8.7412 14.6764,8.8122 14.9114,8.6652 C15.7194,8.1602 15.8794,7.5332 15.8724,7.0962 C15.8474,5.6442 13.8734,4.0822 12.6344,3.2432 C15.8804,2.8312 20.8174,6.6982 20.8734,6.7412 C20.9994,6.8422 21.1674,6.8782 21.3194,6.8302 C21.4744,6.7862 21.5984,6.6712 21.6534,6.5192 C23.0284,2.7112 25.8104,1.5202 27.5984,1.1542 C25.3974,3.4332 25.4944,6.8852 25.5004,7.0562 C25.5094,7.2972 25.6894,7.4972 25.9274,7.5322 C31.4314,8.3402 35.9014,10.4082 39.2134,13.6792 C39.3114,13.7752 39.4374,13.8232 39.5644,13.8232 C39.6934,13.8232 39.8224,13.7732 39.9204,13.6752 C40.1144,13.4782 40.1124,13.1612 39.9154,12.9682 C36.5374,9.6312 32.0284,7.4932 26.5084,6.6092 C26.5654,5.4842 26.9564,2.3422 29.5094,0.9382 C29.7054,0.8312 29.8054,0.6072 29.7564,0.3902 C29.7074,0.1732 29.5204,0.0142 29.2984,0.0012 C29.2394,0.0052 23.4554,-0.2728 20.9584,5.5562 C19.3154,4.3642 14.3254,1.0802 11.2174,2.6332 C11.0534,2.7152 10.9474,2.8812 10.9412119,3.0642 C10.9364,3.2492 11.0314,3.4212 11.1914,3.5132 C12.6044,4.3302 14.8534,6.0312 14.8724,7.1132 L14.8724,7.1132 Z" id="Fill-1" fill="#0a0c0e" mask="url(#hairshort-bieber-mask-2)"/></g></g></g><g id="Expression" transform="translate(201.000000, 388.000000) scale(1 1)"><g id="Expression/Happy" stroke="none" stroke-width="1" fill="none" fill-rule="evenodd"><path d="M65.5638,42.4847 C65.7318,42.7047 65.6888,43.0187 65.4678,43.1857 C63.3578,44.7897 61.4758,45.3127 59.9198,45.3127 C57.0168,45.3127 55.2448,43.4917 55.2178,43.4637 C55.0288,43.2627 55.0378,42.9477 55.2368,42.7577 C55.4378,42.5677 55.7538,42.5767 55.9438,42.7747 C56.0888,42.9257 59.5458,46.4277 64.8638,42.3897 C65.0828,42.2217 65.3978,42.2647 65.5638,42.4847 Z M61.1759,29.2677 C61.5959,29.7817 65.2429,34.3587 64.0529,36.8667 C63.5839,37.8557 62.4859,38.3567 60.7889,38.3567 C59.0919,38.3567 57.9939,37.8557 57.5249,36.8677 C56.3349,34.3597 59.9819,29.7817 60.4019,29.2677 C60.5909,29.0357 60.9859,29.0357 61.1759,29.2677 Z M60.7889,30.3977 C59.6359,31.9377 57.7339,34.9747 58.4289,36.4387 C58.7179,37.0477 59.5119,37.3567 60.7889,37.3567 C62.0659,37.3567 62.8599,37.0477 63.1489,36.4387 C63.8449,34.9747 61.9419,31.9377 60.7889,30.3977 Z M53.8972,27.8363 C54.5552,27.8363 55.0892,28.6193 55.0892,29.5843 C55.0892,30.5493 54.5552,31.3323 53.8972,31.3323 C53.2392,31.3323 52.7062,30.5493 52.7062,29.5843 C52.7062,28.6193 53.2392,27.8363 53.8972,27.8363 Z M67.769,27.8363 C68.428,27.8363 68.961,28.6193 68.961,29.5843 C68.961,30.5493 68.428,31.3323 67.769,31.3323 C67.112,31.3323 66.578,30.5493 66.578,29.5843 C66.578,28.6193 67.112,27.8363 67.769,27.8363 Z M55.0896,23.9998 C55.3656,23.9998 55.5896,24.2238 55.5896,24.4998 C55.5896,24.7758 55.3656,24.9998 55.0896,24.9998 C52.5666,24.9998 51.0876,26.4288 51.0726,26.4438 C50.9746,26.5398 50.8476,26.5878 50.7206,26.5878 C50.5916,26.5878 50.4636,26.5388 50.3666,26.4408 C50.1716,26.2448 50.1716,25.9298 50.3666,25.7348 C50.4376,25.6648 52.1356,23.9998 55.0896,23.9998 Z M66.5776,23.9998 C69.5316,23.9998 71.2296,25.6648 71.3006,25.7348 C71.4956,25.9298 71.4956,26.2448 71.3006,26.4408 C71.2036,26.5388 71.0746,26.5878 70.9466,26.5878 C70.8196,26.5878 70.6926,26.5398 70.5946,26.4438 C70.5806,26.4288 69.1006,24.9998 66.5776,24.9998 C66.3016,24.9998 66.0776,24.7758 66.0776,24.4998 C66.0776,24.2238 66.3016,23.9998 66.5776,23.9998 Z" id="Combined-Shape" fill="#0a0c0e"/><path d="M51.4996066,33 C53.4327301,33 55,33.8954741 55,35 C55,36.1045259 53.4327301,37 51.4996066,37 C49.5664831,37 48,36.1045259 48,35 C48,33.8954741 49.5664831,33 51.4996066,33 Z M69.5,33 C71.4329063,33 73,33.8954741 73,35 C73,36.1045259 71.4329063,37 69.5,37 C67.5670937,37 66,36.1045259 66,35 C66,33.8954741 67.5670937,33 69.5,33 Z" id="Cheeks" fill="#c99dc8"/></g></g><g id="Facial Hair" transform="translate(201.000000, 387.000000) scale(1 1)" fill="#0a0c0e"><g id="Facial Hair/None" stroke="none" stroke-width="1" fill="none" fill-rule="evenodd" fill-opacity="0"/></g><g id="Accesories" transform="translate(104.500000, 286.000000) scale(1 1)"><g id="Accesories/Simple Glases" stroke="none" stroke-width="1" fill="none" fill-rule="evenodd"><path d="M153.6922,129 C154.5482,129 155.3622,129.369 155.9252,130.013 C156.4882,130.657 156.7462,131.513 156.6332,132.361 L156.547997,132.998134 C156.879673,132.976172 157.215343,132.9622 157.558,132.9622 C158.066,132.9622 158.558,132.9922 159.04,133.0402 L159.038766,133.04 L158.9677,132.231 C158.8947,131.403 159.1737,130.577 159.7347,129.964 C160.2957,129.352 161.0927,129 161.9237,129 L169.6487,129 C170.5047,129 171.3187,129.369 171.8817,130.013 C172.4447,130.657 172.7027,131.513 172.5897,132.361 L171.8617,137.792 C171.6827,139.129 170.6237,140.178 169.2837,140.342 L166.1967,140.721 C166.0767,140.736 165.9567,140.744 165.8357,140.744 C165.7237,140.744 165.6117,140.737 165.5017,140.725 L162.0737,140.337 C160.6737,140.179 159.5777,139.057 159.4517,137.653 L159.130009,134.055083 C158.620319,133.995157 158.094652,133.9622 157.558,133.9622 C157.168,133.9622 156.787,133.9842 156.411,134.0162 L156.411,134.0162 L155.9052,137.792 C155.7262,139.129 154.6672,140.178 153.3272,140.342 L150.2402,140.721 C150.1202,140.736 150.0002,140.744 149.8792,140.744 C149.7672,140.744 149.6552,140.737 149.5452,140.725 L146.1172,140.337 C144.7172,140.179 143.6212,139.057 143.4952,137.653 L143.0112,132.231 C142.9382,131.403 143.2172,130.577 143.7782,129.964 C144.3392,129.352 145.1362,129 145.9672,129 L153.6922,129 Z M153.6922,130 L145.9672,130 C145.4082,130 144.8932,130.227 144.5162,130.639 C144.1382,131.052 143.9582,131.585 144.0082,132.142 L144.4912,137.564 C144.5742,138.495 145.3012,139.239 146.2302,139.344 L148.2162,139.568 L151.5602,139.552 L151.5602,139.552 L153.2052,139.35 C154.0932,139.241 154.7962,138.546 154.9142,137.659 L155.6412,132.228 C155.7172,131.666 155.5462,131.099 155.1722,130.671 C154.7992,130.245 154.2592,130 153.6922,130 Z M169.6487,130 L161.9237,130 C161.3647,130 160.8497,130.227 160.4727,130.639 C160.0947,131.052 159.9147,131.585 159.9647,132.142 L160.4477,137.564 C160.5307,138.495 161.2577,139.239 162.1867,139.344 L164.1747,139.568 L167.5147,139.552 L167.5147,139.552 L169.1617,139.35 C170.0497,139.241 170.7527,138.546 170.8707,137.659 L171.5977,132.228 C171.6737,131.666 171.5027,131.099 171.1287,130.671 C170.7557,130.245 170.2157,130 169.6487,130 Z" id="Combined-Shape" fill="#0a0c0e"/></g></g></g></g><g id="Table top" transform="translate(152.000000, 185.000000) scale(1 1)"><g id="Table top/Lamp" stroke="none" stroke-width="1" fill="none" fill-rule="evenodd"><g id="Desktop-Lamp" transform="translate(51.000000, 47.000000)"><g id="Desk-Top"><path d="M89.0718,59.174 C89.0718,62.675 86.2338,65.513 82.7328,65.513 C79.2318,65.513 76.3938,62.675 76.3938,59.174 C76.3938,55.673 79.2318,52.835 82.7328,52.835 C86.2338,52.835 89.0718,55.673 89.0718,59.174" id="Fill-154" fill="#dddb9e"/><path d="M55.8238,59.174 L106.7708,59.174 C106.7708,46.217 96.8208,35.59 84.1448,34.502 C84.1808,34.278 84.2138,34.053 84.2138,33.819 C84.2138,31.442 82.2868,29.515 79.9098,29.515 C79.6308,29.515 79.3588,29.546 79.0948,29.597 L51.2398,8.475 C51.2888,8.129 51.3228,7.778 51.3228,7.419 C51.3228,3.321 48.0018,0 43.9048,0 C39.8078,0 36.4868,3.321 36.4868,7.419 C36.4868,10.078 37.8908,12.404 39.9938,13.714 L22.2258,103.729 L5.8148,103.729 C2.9148,103.729 0.5638,106.079 0.5638,108.98 L48.8558,108.98 C48.8558,106.079 46.5048,103.729 43.6048,103.729 L26.9998,103.729 L44.5538,14.804 C46.2838,14.653 47.8408,13.91 49.0258,12.778 L75.6888,32.996 C75.6368,33.263 75.6058,33.537 75.6058,33.819 C75.6058,34.193 75.6678,34.548 75.7578,34.893 C64.3948,37.144 55.8238,47.151 55.8238,59.174" id="Lamp" fill="#d06566"/><path d="M36.147,103.1105 L5.815,103.1105 C5.474,103.1105 5.197,103.3865 5.197,103.7285 C5.197,104.0705 5.474,104.3465 5.815,104.3465 L36.147,104.3465 C36.488,104.3465 36.765,104.0705 36.765,103.7285 C36.765,103.3865 36.488,103.1105 36.147,103.1105 M106.771,58.6285 L56.376,58.6285 C56.626,47.4965 64.52,37.9155 75.388,35.5325 C76.083,37.3605 77.84,38.6695 79.91,38.6695 C80.211,38.6695 80.456,38.4245 80.456,38.1235 C80.456,37.8215 80.211,37.5775 79.91,37.5775 C77.837,37.5775 76.151,35.8905 76.151,33.8185 C76.151,31.7465 77.837,30.0605 79.91,30.0605 C80.211,30.0605 80.456,29.8165 80.456,29.5145 C80.456,29.2135 80.211,28.9685 79.91,28.9685 C77.235,28.9685 75.06,31.1445 75.06,33.8185 C75.06,34.0435 75.096,34.2575 75.126,34.4745 C63.598,37.0145 55.278,47.3085 55.278,59.1735 C55.278,59.4755 55.522,59.7195 55.824,59.7195 L106.771,59.7195 C107.073,59.7195 107.317,59.4755 107.317,59.1735 C107.317,58.8725 107.073,58.6285 106.771,58.6285 M51.323,6.8735 C51.021,6.8735 50.777,7.1175 50.777,7.4195 C50.777,11.2085 47.694,14.2915 43.905,14.2915 C40.115,14.2915 37.032,11.2085 37.032,7.4195 C37.032,7.1175 36.788,6.8735 36.486,6.8735 C36.185,6.8735 35.94,7.1175 35.94,7.4195 C35.94,11.8105 39.513,15.3825 43.905,15.3825 C48.296,15.3825 51.869,11.8105 51.869,7.4195 C51.869,7.1175 51.625,6.8735 51.323,6.8735" id="Fill-156" fill="#0a0c0e"/></g></g></g></g><g id="Pet" transform="translate(151.254800, 401.770000) scale(1 1)"><g id="Pet/Cat" stroke="none" stroke-width="1" fill="none" fill-rule="evenodd"><g id="Cat" transform="translate(47.000000, 72.000000)"><g><path d="M107.3156,26.6968 C105.7676,19.8878 101.8626,13.0238 93.6096,7.7858 C61.8106,-12.3982 40.8946,15.4808 40.8946,15.4808 L40.8946,15.4818 C37.0586,13.4508 32.4416,12.2638 27.4716,12.2638 C14.1606,12.2638 3.3706,20.7698 3.3706,31.2608 C3.3706,38.6148 7.7496,44.5908 15.5026,47.7478 C14.3166,48.6748 13.3526,50.4918 13.3526,52.0138 C13.3526,54.9748 17.8096,57.3758 23.3066,57.3758 C28.8046,57.3758 33.2616,54.9748 33.2616,52.0138 L33.4806,52.0138 C34.4466,54.6598 38.5596,55.8958 42.9256,54.7768 C45.0496,54.2318 46.8486,53.2238 48.0936,52.0138 L54.2916,52.0138 C54.8736,52.8738 55.8656,53.4148 56.9496,53.4148 L85.6466,53.4148 C99.7166,53.4148 110.4336,40.4178 107.3156,26.6968" id="Cat-Hair" fill="#d4ebf3"/><path d="M107.815455,35.4419 C107.187677,38.4060113 107.858679,40.0182569 105.020461,41.9415658 C105.202461,41.9765658 116.969421,41.4419 107.858679,41.4419 L114.5002,41.4419 C115.5222,41.4419 116.3542,42.2729 116.3542,43.2959 C116.3542,44.2949 115.5722,45.1079 114.5742,45.1479 L96.5712,45.7189 C89.0202,46.0249 81.5172,47.2739 74.2722,49.4329 C72.6852,49.9059 71.7812,51.5769 72.2542,53.1649 C72.6422,54.4659 73.8352,55.3089 75.1282,55.3089 C75.4112,55.3089 75.7002,55.2679 75.9852,55.1829 C82.7532,53.1669 89.7612,51.9999 96.8142,51.7139 L114.8172,51.1429 C119.0432,50.9719 122.3542,47.5249 122.3542,43.2959 C122.3542,38.9649 118.8302,35.4419 114.5002,35.4419 L107.815455,35.4419 Z" id="Fill-5" fill="#0a0c0e"/><path d="M34.0158,35.2671 C33.4808,35.2671 32.9438,35.2051 32.4118,35.0781 C32.1418,35.0141 31.9758,34.7451 32.0398,34.4761 C32.1038,34.2061 32.3768,34.0351 32.6418,34.1051 C33.8678,34.3961 35.1198,34.2931 36.2708,33.8111 C37.4208,33.3271 38.3708,32.5021 39.0198,31.4261 C39.1638,31.1891 39.4728,31.1171 39.7058,31.2551 C39.9428,31.3981 40.0188,31.7051 39.8768,31.9421 C39.1188,33.2011 38.0048,34.1651 36.6588,34.7331 C35.8118,35.0881 34.9178,35.2671 34.0158,35.2671" id="Fill-3" fill="#0a0c0e"/><path d="M47.9143,33.5542 L34.9083,40.2442 C34.6623,40.3702 34.5653,40.6722 34.6923,40.9172 C34.7813,41.0902 34.9563,41.1892 35.1373,41.1892 C35.2143,41.1892 35.2923,41.1712 35.3653,41.1332 L48.3713,34.4432 C48.6173,34.3172 48.7143,34.0152 48.5873,33.7702 C48.4603,33.5242 48.1603,33.4272 47.9143,33.5542" id="Fill-8" fill="#0a0c0e"/><path d="M49.716,25.0835 C50.593,27.0165 51.074,29.0955 51.074,31.2615 C51.074,33.3775 50.612,35.4095 49.774,37.3055 C49.772,37.2975 49.774,37.2895 49.771,37.2815 C49.684,37.0205 49.402,36.8765 49.138,36.9675 L35.431,41.5665 C35.169,41.6545 35.028,41.9375 35.116,42.1995 C35.186,42.4085 35.381,42.5405 35.59,42.5405 C35.643,42.5405 35.696,42.5325 35.749,42.5145 L49.456,37.9145 C49.474,37.9085 49.486,37.8965 49.502,37.8885 C49.004,38.9005 48.4,39.8725 47.693,40.7905 L35.868,42.6025 C35.596,42.6445 35.408,42.8985 35.45,43.1725 C35.488,43.4195 35.701,43.5965 35.944,43.5965 C35.969,43.5965 35.994,43.5945 36.021,43.5905 L46.715,41.9515 C46.082,42.6485 45.391,43.3095 44.646,43.9305 C44.404,44.1315 44.158,44.3265 43.907,44.5185 C43.764,44.6275 43.619,44.7365 43.472,44.8445 C43.192,45.0475 42.905,45.2435 42.614,45.4355 C42.414,45.5665 42.21,45.6935 42.004,45.8195 C41.792,45.9505 41.577,46.0795 41.36,46.2045 C41.165,46.3155 40.97,46.4265 40.771,46.5325 C40.522,46.6665 40.267,46.7945 40.011,46.9205 C39.732,47.0595 39.448,47.1915 39.161,47.3195 C38.932,47.4235 38.701,47.5245 38.467,47.6215 C38.265,47.7055 38.061,47.7875 37.855,47.8675 C37.518,47.9965 37.178,48.1205 36.833,48.2375 C36.642,48.3025 36.449,48.3635 36.256,48.4245 C35.924,48.5285 35.59,48.6285 35.251,48.7215 C35.091,48.7655 34.931,48.8085 34.769,48.8495 C34.306,48.9675 33.84,49.0785 33.366,49.1745 C32.89,49.2705 32.404,49.3525 31.916,49.4245 C30.54,49.6305 29.156,49.7375 27.78,49.7525 C27.75,49.7525 27.719,49.7535 27.689,49.7545 C27.025,49.7585 26.363,49.7395 25.705,49.7015 C25.65,49.6975 25.594,49.6945 25.539,49.6905 C24.874,49.6485 24.214,49.5855 23.559,49.4995 C23.543,49.4975 23.527,49.4945 23.51,49.4925 C23.215,49.4535 22.926,49.3935 22.633,49.3455 L27.332,46.8055 C27.295,46.8535 27.263,46.9065 27.244,46.9685 C27.162,47.2315 27.311,47.5125 27.574,47.5935 C27.913,47.6975 28.278,47.7505 28.652,47.7505 C29.077,47.7505 29.517,47.6825 29.945,47.5475 C30.784,47.2825 31.502,46.7895 31.966,46.1585 C32.13,45.9365 32.241,45.7035 32.33,45.4695 C32.832,45.8115 33.483,46.0055 34.193,46.0055 C34.608,46.0055 35.041,45.9405 35.474,45.8045 C36.278,45.5515 36.978,45.0825 37.444,44.4845 C37.613,44.2665 37.574,43.9525 37.357,43.7825 C37.137,43.6125 36.824,43.6515 36.654,43.8695 C36.313,44.3095 35.786,44.6575 35.173,44.8515 C33.934,45.2385 32.662,44.8625 32.4,44.0285 L31.44,40.9835 C31.357,40.7215 31.076,40.5755 30.813,40.6575 C30.549,40.7405 30.404,41.0215 30.487,41.2845 L31.445,44.3275 C31.567,44.7115 31.465,45.1505 31.16,45.5655 C30.82,46.0275 30.282,46.3935 29.645,46.5945 C29.031,46.7855 28.402,46.8025 27.869,46.6385 C27.806,46.6175 27.742,46.6125 27.68,46.6175 L28.8,46.0125 C29.043,45.8815 29.134,45.5775 29.002,45.3355 C28.871,45.0915 28.566,45.0015 28.325,45.1335 L21.075,49.0515 C20.176,48.8525 19.295,48.6065 18.431,48.3245 L28.367,44.9905 C28.629,44.9025 28.77,44.6195 28.682,44.3575 C28.595,44.0965 28.311,43.9525 28.049,44.0435 L16.912,47.7805 C16.547,47.6375 16.179,47.4975 15.823,47.3385 C15.421,47.1585 15.05,46.9445 14.662,46.7485 C16.439,46.6995 18.95,46.0725 21.39,44.7805 L27.841,43.6575 C28.112,43.6105 28.295,43.3525 28.247,43.0795 C28.2,42.8065 27.934,42.6185 27.669,42.6735 L23.618,43.3785 C26.361,41.3455 28.641,38.3415 29.094,34.2145 C30.053,25.4945 46.462,25.0035 49.716,25.0835 M23.307,56.8755 C18.182,56.8755 13.853,54.6485 13.853,52.0145 C13.853,51.0515 14.058,50.2595 14.428,49.5935 C14.454,49.5985 14.475,49.6165 14.501,49.6165 C14.554,49.6165 14.608,49.6085 14.66,49.5905 L16.865,48.8505 C16.985,48.8955 17.108,48.9375 17.229,48.9805 C17.353,49.0255 17.476,49.0705 17.6,49.1135 C18.155,49.3085 18.721,49.4855 19.296,49.6465 C19.365,49.6665 19.434,49.6845 19.503,49.7025 C19.585,49.7255 19.666,49.7465 19.748,49.7685 L15.242,52.2035 C14.999,52.3345 14.908,52.6385 15.04,52.8805 C15.13,53.0485 15.302,53.1435 15.48,53.1435 C15.561,53.1435 15.642,53.1235 15.717,53.0825 L21.207,50.1155 C21.928,50.2665 22.661,50.3895 23.406,50.4865 L23.447,50.4925 C24.104,50.5785 24.769,50.6435 25.441,50.6865 C25.496,50.6895 25.551,50.6925 25.607,50.6965 C26.223,50.7325 26.844,50.7585 27.472,50.7585 C28.229,50.7585 28.977,50.7275 29.716,50.6735 C29.731,50.6725 29.745,50.6725 29.76,50.6715 C30.438,50.6215 31.107,50.5475 31.769,50.4545 C31.801,50.4495 31.834,50.4485 31.867,50.4435 C32.461,50.9775 32.762,51.5055 32.762,52.0145 C32.762,54.6485 28.432,56.8755 23.307,56.8755 M16.627,40.8665 C16.666,40.7015 16.768,40.5625 16.911,40.4765 C17.053,40.3895 17.221,40.3665 17.383,40.4045 C18.577,40.6885 19.806,40.5895 20.93,40.1165 C22.058,39.6425 22.988,38.8355 23.621,37.7835 C23.705,37.6415 23.843,37.5395 24.006,37.4985 C24.171,37.4615 24.338,37.4835 24.483,37.5725 C24.774,37.7485 24.869,38.1335 24.692,38.4285 C23.921,39.7095 22.787,40.6915 21.414,41.2695 C20.554,41.6305 19.649,41.8125 18.724,41.8125 C18.177,41.8125 17.627,41.7485 17.09,41.6205 C16.927,41.5815 16.789,41.4805 16.701,41.3385 C16.614,41.1955 16.588,41.0285 16.627,40.8665 M107.803,26.5855 C105.973,18.5335 101.287,12.0665 93.877,7.3635 C69.563,-8.0705 51.364,4.4795 44.036,11.3855 C42.405,11.6615 40.466,12.8585 38.905,14.0165 C35.487,12.5855 31.601,11.7645 27.472,11.7645 C14.351,11.7645 3.598,19.9465 2.907,30.2115 C1.351,30.7685 0.137,31.6005 0.012,32.8535 C-0.18,34.7635 2.06,36.5335 4.313,37.8185 C6.207,42.0055 9.852,45.5355 14.554,47.8455 C13.429,48.8285 12.853,50.2245 12.853,52.0145 C12.853,55.3015 17.445,57.8755 23.307,57.8755 C28.456,57.8755 32.624,55.8885 33.562,53.1775 C34.722,54.7525 37.041,55.6845 39.773,55.6845 C40.822,55.6845 41.93,55.5485 43.05,55.2615 C47.852,54.0295 51.106,50.4805 50.303,47.3515 C50.235,47.0835 49.959,46.9205 49.695,46.9905 C49.427,47.0595 49.266,47.3315 49.334,47.5995 C50,50.1945 47.07,53.1975 42.802,54.2925 C38.535,55.3895 34.521,54.1645 33.855,51.5685 C33.736,51.1035 33.736,50.6075 33.854,50.0955 C33.975,50.0685 34.093,50.0355 34.214,50.0085 C34.526,49.9375 34.835,49.8625 35.141,49.7835 C35.355,49.7285 35.568,49.6725 35.778,49.6115 C36.047,49.5355 36.312,49.4525 36.575,49.3685 C36.984,49.2395 37.387,49.1025 37.785,48.9555 C37.94,48.8985 38.094,48.8445 38.247,48.7845 C38.539,48.6715 38.828,48.5545 39.114,48.4325 C39.2,48.3955 39.284,48.3565 39.368,48.3195 C40.33,47.8975 41.255,47.4265 42.139,46.9045 L42.256,46.8345 C43.144,46.3045 43.987,45.7255 44.784,45.0985 C44.843,45.0525 44.901,45.0065 44.959,44.9595 C45.15,44.8065 45.348,44.6595 45.532,44.5015 C45.55,44.4855 45.559,44.4655 45.574,44.4475 C46.553,43.6045 47.436,42.6915 48.217,41.7225 L50.721,41.3385 C50.993,41.2965 51.181,41.0415 51.139,40.7685 C51.097,40.4955 50.847,40.3125 50.569,40.3505 L49.078,40.5785 C50.987,37.8095 52.074,34.6335 52.074,31.2615 C52.074,26.5505 49.945,22.2315 46.421,18.8585 C47.246,16.2695 47.789,13.1685 46.241,11.8455 C46,11.6385 45.725,11.5025 45.427,11.4205 C46.251,10.6685 47.195,9.8675 48.248,9.0555 C48.985,9.5445 49.852,9.8505 50.803,9.8505 C53.399,9.8505 55.502,7.7465 55.502,5.1505 C55.502,4.9495 55.485,4.7535 55.457,4.5605 C55.487,4.5455 55.515,4.5295 55.545,4.5155 C55.733,4.4245 55.926,4.3355 56.118,4.2465 C58.344,6.9795 62.388,8.8205 67.038,8.8205 C67.362,8.8205 67.683,8.8075 68.001,8.7895 C60.427,11.5905 55.002,18.8635 55.002,27.3995 C55.002,33.6055 57.871,39.3715 62.741,43.1235 L61.531,43.1235 C57.264,43.1235 53.791,46.5965 53.791,50.8645 L53.791,52.0145 C53.791,52.0305 53.799,52.0455 53.801,52.0615 C53.804,52.0945 53.811,52.1255 53.82,52.1575 C53.83,52.1905 53.843,52.2215 53.86,52.2515 C53.867,52.2665 53.868,52.2805 53.877,52.2945 C53.891,52.3145 53.91,52.3285 53.925,52.3495 C53.933,52.3575 53.939,52.3655 53.946,52.3735 C54.64,53.3355 55.749,53.9145 56.949,53.9145 L70.481,53.9145 C70.757,53.9145 70.981,53.6905 70.981,53.4145 C70.981,53.1385 70.757,52.9145 70.481,52.9145 L56.949,52.9145 C56.09,52.9145 55.299,52.5065 54.791,51.8325 L54.791,50.8645 C54.791,47.1475 57.815,44.1235 61.531,44.1235 L64.293,44.1235 C64.296,44.1235 64.298,44.1255 64.3,44.1255 C64.303,44.1255 64.305,44.1235 64.308,44.1235 L68.035,44.1235 C68.312,44.1235 68.535,43.8995 68.535,43.6235 C68.535,43.3475 68.312,43.1235 68.035,43.1235 L64.454,43.1235 C59.16,39.6135 56.002,33.7485 56.002,27.3995 C56.002,17.0035 64.461,8.5445 74.858,8.5445 C78.545,8.5445 82.116,9.6075 85.185,11.6205 C85.415,11.7705 85.725,11.7085 85.877,11.4775 C86.029,11.2455 85.964,10.9365 85.734,10.7845 C82.501,8.6645 78.74,7.5445 74.858,7.5445 C74.321,7.5445 73.795,7.5825 73.27,7.6255 C76.16,6.4305 78.342,4.4275 79.275,2.0365 C79.633,2.1235 79.993,2.2135 80.357,2.3125 C79.993,2.7625 79.786,3.2685 79.786,3.8055 C79.786,5.6565 82.202,7.1585 85.184,7.1585 C86.877,7.1585 88.376,6.6685 89.363,5.9095 C90.369,6.4365 91.388,7.0135 92.418,7.6415 C92.057,7.5685 91.678,7.5195 91.278,7.5195 C89.205,7.5195 87.526,8.5625 87.526,9.8505 C87.526,11.1385 89.205,12.1815 91.278,12.1815 C93.35,12.1815 95.03,11.1385 95.03,9.8505 C95.03,9.6425 94.972,9.4435 94.889,9.2515 C101.173,13.7025 105.189,19.5995 106.828,26.8075 C106.881,27.0395 107.087,27.1965 107.316,27.1965 C107.352,27.1965 107.389,27.1925 107.426,27.1845 C107.695,27.1235 107.864,26.8545 107.803,26.5855" id="Cat-Spots" fill="#0a0c0e"/><path d="M32.2316,39.3374 L28.8946,40.3894 C28.2226,40.6014 28.1426,41.5184 28.7666,41.8434 L30.9606,42.9854 C31.3476,43.1874 31.8256,43.0364 32.0266,42.6504 L33.1686,40.4554 C33.4946,39.8314 32.9026,39.1264 32.2316,39.3374 M1.9816,34.4624 C3.3016,36.2334 6.7046,37.6244 7.7506,38.0204 C7.7476,36.7084 7.8896,35.3604 8.1776,34.0044 C5.7916,33.0934 2.9106,34.0524 1.9816,34.4624 M46.0656,13.5764 C45.1146,13.9324 42.3836,15.2604 41.3136,17.5804 C42.4676,18.3494 43.5116,19.2124 44.4256,20.1524 C44.8976,19.1394 46.3596,15.7674 46.0656,13.5764" id="Fill-12" fill="#c99dc8"/></g></g></g></g></g></svg>